<?xml version="1.0" encoding="UTF-8"?>
<svg id="Layer_1" xmlns="http://www.w3.org/2000/svg" version="1.1" viewBox="0 0 380.44 440.07">
  <!-- Generator: Adobe Illustrator 30.6.0, SVG Export Plug-In . SVG Version: 2.1.4 Build 109)  -->
  <defs>
    <style>
      .st0 {
        fill: #28b56a;
      }
    </style>
  </defs>
  <path class="st0" d="M50.95,309.74l-15.5,34.2,24.51-24.06-9.01-10.15h0Z"/>
  <path class="st0" d="M160.52,78.27c-78.15,0-141.73,63.59-141.73,141.74,0,38.94,15.79,74.26,41.3,99.91l45.61-45.38c-13.92-14-22.54-33.27-22.54-54.53,0-42.66,34.7-77.36,77.36-77.36s77.36,34.7,77.36,77.36-34.7,77.36-77.36,77.36c-17.41,0-33.49-5.78-46.43-15.52l-38.64,51.46c23.71,17.85,53.17,28.44,85.07,28.44h0c78.15,0,141.73-63.59,141.73-141.74s-63.58-141.73-141.73-141.73Z"/>
  <path d="M322.79,71.51C243.46-15.29,110.59-23.91,21.16,50.24h0l-.04.03c-2.97,2.46-5.89,5.01-8.76,7.65L0,69.5l98.09,104.87,20.9-19.65L40.79,71.2c67.51-54.95,164.29-57.05,234.57-4.25,84.5,63.48,101.57,183.47,38.12,268-58.11,77.42-163.57,98.24-245.82,52.46l.07-.02,92.81-167.38-114.92,153.1s-.03-.02-.04-.03l-17.19,22.91s.02,0,.03.02l-.04.05.08-.02c84.6,63.49,202.39,57.77,280.44-13.63,89.66-82.01,95.88-221.21,13.89-310.9h0Z"/>
  <path d="M160.52,142.65c-42.66,0-77.36,34.7-77.36,77.36,0,21.26,8.62,40.53,22.54,54.53l20.3-20.2c-8.76-8.81-14.19-20.95-14.19-34.33,0-26.86,21.85-48.71,48.71-48.71s48.71,21.85,48.71,48.71-21.85,48.71-48.71,48.71c-10.96,0-21.09-3.64-29.23-9.77l-17.2,22.9c12.94,9.74,29.02,15.52,46.43,15.52,42.66,0,77.36-34.7,77.36-77.36s-34.7-77.36-77.36-77.36Z"/>
</svg>