<?xml version="1.0" encoding="UTF-8"?>
<svg xmlns="http://www.w3.org/2000/svg" viewBox="0 0 357.98 419.76">
  <defs>
    <style>
      .cls-1 {
        fill: #29b56b;
      }

      .cls-2 {
        fill: #010101;
      }

      .cls-3 {
        fill: #231f20;
      }

      .cls-4 {
        fill: #03a04a;
      }
    </style>
  </defs>
  <g id="text">
    <g>
      <path class="cls-3" d="M11.41,404.38L11.41,396.11Q11.41,395.16 12.03,394.59Q12.65,394.02 13.50,394.02L21.21,394.02Q26.91,394.02 31.67,391.21Q36.43,388.41 39.23,383.65Q42.04,378.90 42.04,373.19Q42.04,367.48 39.23,362.73Q36.43,357.97 31.67,355.17Q26.91,352.36 21.21,352.36L13.50,352.36Q13.03,352.36 12.70,352.70Q12.36,353.03 12.36,353.50L12.36,359.31Q12.36,360.16 11.75,360.73Q11.13,361.30 10.27,361.30L2.00,361.30Q1.24,361.30 0.62,360.68Q0.00,360.07 0.00,359.31L0.00,342.09Q0.00,341.24 0.62,340.62Q1.24,340.00 2.00,340.00L21.21,340.00Q30.24,340.00 37.85,344.47Q45.46,348.94 49.93,356.55Q54.40,364.16 54.40,373.19Q54.40,382.22 49.93,389.83Q45.46,397.44 37.85,401.91Q30.24,406.38 21.21,406.38L13.50,406.38Q12.65,406.38 12.03,405.81Q11.41,405.24 11.41,404.38Z"/>
      <path class="cls-3" d="M76.06,403.27L76.06,353.79Q76.06,352.84 75.39,352.22Q74.73,351.60 73.78,351.60L68.36,351.60Q67.88,351.60 67.50,351.22Q67.12,350.84 67.12,350.27L67.12,341.43Q67.12,340.86 67.50,340.48Q67.88,340.10 68.36,340.10L109.91,340.10Q110.39,340.10 110.77,340.48Q111.15,340.86 111.15,341.43L111.15,350.27Q111.15,350.84 110.77,351.22Q110.39,351.60 109.91,351.60L92.13,351.60Q91.18,351.60 90.51,352.27Q89.85,352.93 89.85,353.79L89.85,405.12Q89.85,405.69 89.47,406.03Q89.09,406.36 88.61,406.36L79.15,406.36Q76.06,406.36 76.06,403.27Z"/>
      <path class="cls-3" d="M127.59,404.86L127.59,371.67Q127.59,370.90 128.11,370.38Q128.64,369.86 129.40,369.86L149.08,369.86Q152.88,369.86 155.50,367.29Q158.11,364.72 158.11,361.11Q158.11,357.40 155.50,354.83Q152.88,352.26 149.08,352.26L141.09,352.26Q140.05,352.26 139.33,352.98Q138.62,353.69 138.62,354.64L138.62,357.02Q138.62,357.97 137.95,358.68Q137.29,359.40 136.24,359.40L129.97,359.40Q129.02,359.40 128.30,358.68Q127.59,357.97 127.59,357.02L127.59,341.71Q127.59,340.95 128.11,340.42Q128.64,339.90 129.40,339.90L149.08,339.90Q154.97,339.90 159.92,342.75Q164.86,345.61 167.76,350.46Q170.66,355.31 170.66,361.11Q170.66,366.05 168.43,370.43Q166.19,374.80 162.30,377.75Q161.72,378.13 161.72,378.70Q161.72,379.27 161.82,379.65L172.85,404.29Q173.23,404.95 173.23,405.52Q173.23,406.57 171.90,406.57L164.10,406.57Q163.06,406.57 162.53,406.38Q162.01,406.19 161.63,405.43L151.74,383.17Q151.46,382.60 150.98,382.41Q150.51,382.22 149.08,382.22L141.00,382.22Q139.86,382.22 139.24,382.56Q138.62,382.89 138.62,383.93L138.62,404.86Q138.62,405.62 138.10,406.09Q137.57,406.57 136.81,406.57L129.40,406.57Q128.64,406.57 128.11,406.09Q127.59,405.62 127.59,404.86Z"/>
      <path class="cls-4" d="M187.41,349.88L187.41,341.70Q187.41,340.94 187.93,340.47Q188.46,339.99 189.12,339.99L233.25,339.99Q234.01,339.99 234.53,340.51Q235.05,341.04 235.05,341.70L235.05,349.88Q235.05,350.55 234.53,351.12Q234.01,351.69 233.25,351.69L189.12,351.69Q188.46,351.69 187.93,351.17Q187.41,350.64 187.41,349.88ZM187.41,404.86L187.41,360.92Q187.41,360.15 187.93,359.68Q188.46,359.20 189.12,359.20L197.21,359.20Q197.97,359.20 198.44,359.68Q198.92,360.15 198.92,360.92L198.92,365.68Q198.92,369.57 204.25,369.57L225.35,369.57Q226.02,369.57 226.50,370.00Q226.97,370.43 226.97,371.09L226.97,379.27Q226.97,379.94 226.50,380.37Q226.02,380.79 225.35,380.79L204.39,380.79Q198.92,380.79 198.92,385.79L198.92,393.16Q198.92,393.82 199.49,394.40Q200.06,394.97 200.72,394.97L233.44,394.97Q234.20,394.97 234.67,395.44Q235.15,395.92 235.15,396.68L235.15,404.86Q235.15,405.52 234.67,406.05Q234.20,406.57 233.44,406.57L189.12,406.57Q188.46,406.57 187.93,406.05Q187.41,405.52 187.41,404.86Z"/>
      <path class="cls-4" d="M298.03,364.33l-18.24,19.92,20.55,22.3h-13.98l-13.52-14.73-13.52,14.73h-14.02l20.51-22.38-18.16-19.84h13.91l11.21,12.23,11.29-12.23h13.98Z"/>
      <path class="cls-4" d="M357.98,392.3c0,1.75-.22,3.31-.66,4.71-.44,1.39-1.03,2.62-1.76,3.67-.73,1.05-1.58,1.95-2.54,2.7-.96.74-1.97,1.35-3.03,1.82s-2.12.81-3.18,1.04c-1.07.22-2.08.33-3.05.33h-18.32v-10.16h18.32c1.35,0,2.37-.35,3.05-1.05.68-.7,1.02-1.72,1.02-3.05v-13.67c0-1.41-.35-2.45-1.04-3.12-.69-.68-1.7-1.02-3.03-1.02h-18.24c-1.38,0-2.42.35-3.12,1.04-.7.69-1.05,1.7-1.05,3.03v41.21h-10.16v-41.21c0-1.74.22-3.31.66-4.69.44-1.38,1.04-2.6,1.78-3.65s1.59-1.95,2.56-2.7c.96-.74,1.97-1.35,3.03-1.82s2.12-.81,3.2-1.04c1.08-.22,2.09-.33,3.03-.33h18.32c1.74,0,3.31.22,4.69.66,1.38.44,2.6,1.03,3.65,1.76,1.05.73,1.95,1.58,2.7,2.54.74.96,1.35,1.97,1.82,3.03s.81,2.12,1.04,3.18c.22,1.07.33,2.08.33,3.05v13.75Z"/>
    </g>
  </g>
  <g id="mark">
    <g>
      <path class="cls-1" d="M87.91,202.57l-10.14,22.37,16.03-15.74-5.89-6.64h0Z"/>
      <path class="cls-1" d="M159.57,51.19c-51.11,0-92.69,41.59-92.69,92.7,0,25.47,10.33,48.57,27.01,65.34l29.83-29.68c-9.1-9.16-14.74-21.76-14.74-35.66,0-27.9,22.69-50.59,50.59-50.59s50.59,22.69,50.59,50.59-22.69,50.59-50.59,50.59c-11.39,0-21.9-3.78-30.37-10.15l-25.27,33.65c15.51,11.67,34.77,18.6,55.64,18.6h0c51.11,0,92.69-41.59,92.69-92.7s-41.58-92.69-92.69-92.69h0Z"/>
      <path class="cls-2" d="M265.69,46.77C213.81-10,126.91-15.64,68.43,32.86h0l-.03.02c-1.94,1.61-3.85,3.28-5.73,5l-8.08,7.57,64.15,68.58,13.67-12.85-51.14-54.62c44.15-35.94,107.44-37.31,153.41-2.78,55.26,41.52,66.43,119.99,24.93,175.27-38,50.63-106.97,64.25-160.77,34.31h.05s60.7-109.48,60.7-109.48l-75.16,100.13s-.02-.01-.03-.02l-11.24,14.98s.01,0,.02.01l-.03.03h.05c55.33,41.51,132.36,37.77,183.41-8.93,58.64-53.63,62.71-144.67,9.08-203.33h0Z"/>
      <path class="cls-2" d="M159.57,93.29c-27.9,0-50.59,22.69-50.59,50.59,0,13.9,5.64,26.51,14.74,35.66l13.28-13.21c-5.73-5.76-9.28-13.7-9.28-22.45,0-17.57,14.29-31.86,31.86-31.86s31.86,14.29,31.86,31.86-14.29,31.86-31.86,31.86c-7.17,0-13.79-2.38-19.12-6.39l-11.25,14.98c8.46,6.37,18.98,10.15,30.37,10.15,27.9,0,50.59-22.69,50.59-50.59s-22.69-50.59-50.59-50.59h0Z"/>
    </g>
  </g>
</svg>