<?xml version="1.0" encoding="UTF-8"?>
<svg id="text" xmlns="http://www.w3.org/2000/svg" viewBox="0 0 471.36 105.15">
  <defs>
    <style>
      .cls-1 {
        fill: #03a04a;
      }

      .cls-2 {
        fill: #fff;
      }
    </style>
  </defs>
  <path class="cls-2" d="M15.02,84.88L15.02,73.99Q15.02,72.74 15.84,71.99Q16.65,71.23 17.78,71.23L27.92,71.23Q35.43,71.23 41.69,67.54Q47.95,63.85 51.64,57.59Q55.33,51.33 55.33,43.82Q55.33,36.30 51.64,30.04Q47.95,23.78 41.69,20.09Q35.43,16.40 27.92,16.40L17.78,16.40Q17.15,16.40 16.71,16.83Q16.27,17.27 16.27,17.90L16.27,25.54Q16.27,26.66 15.46,27.41Q14.65,28.16 13.52,28.16L2.63,28.16Q1.63,28.16 0.81,27.35Q0.00,26.54 0.00,25.54L0.00,2.87Q0.00,1.75 0.81,0.93Q1.63,0.12 2.63,0.12L27.92,0.12Q39.81,0.12 49.83,6.00Q59.84,11.89 65.73,21.90Q71.61,31.92 71.61,43.82Q71.61,55.71 65.73,65.73Q59.84,75.74 49.83,81.63Q39.81,87.51 27.92,87.51L17.78,87.51Q16.65,87.51 15.84,86.76Q15.02,86.01 15.02,84.88Z"/>
  <path class="cls-2" d="M100.15,83.44L100.15,18.28Q100.15,17.03 99.27,16.21Q98.40,15.40 97.14,15.40L90.01,15.40Q89.38,15.40 88.88,14.90Q88.38,14.40 88.38,13.65L88.38,2.00Q88.38,1.25 88.88,0.75Q89.38,0.25 90.01,0.25L144.72,0.25Q145.35,0.25 145.85,0.75Q146.35,1.25 146.35,2.00L146.35,13.65Q146.35,14.40 145.85,14.90Q145.35,15.40 144.72,15.40L121.31,15.40Q120.06,15.40 119.18,16.27Q118.30,17.15 118.30,18.28L118.30,85.88Q118.30,86.63 117.80,87.07Q117.30,87.51 116.68,87.51L104.22,87.51Q100.15,87.51 100.15,83.44Z"/>
  <path class="cls-2" d="M168.01,85.52L168.01,41.82Q168.01,40.82 168.70,40.13Q169.39,39.44 170.39,39.44L196.31,39.44Q201.32,39.44 204.76,36.06Q208.21,32.68 208.21,27.92Q208.21,23.04 204.76,19.66Q201.32,16.28 196.31,16.28L185.79,16.28Q184.42,16.28 183.48,17.22Q182.54,18.15 182.54,19.41L182.54,22.54Q182.54,23.79 181.66,24.73Q180.78,25.67 179.41,25.67L171.14,25.67Q169.89,25.67 168.95,24.73Q168.01,23.79 168.01,22.54L168.01,2.38Q168.01,1.38 168.70,0.69Q169.39,0.00 170.39,0.00L196.31,0.00Q204.08,0.00 210.59,3.76Q217.10,7.51 220.92,13.90Q224.74,20.28 224.74,27.92Q224.74,34.43 221.80,40.19Q218.85,45.95 213.72,49.83Q212.97,50.33 212.97,51.08Q212.97,51.84 213.09,52.34L227.62,84.77Q228.12,85.64 228.12,86.39Q228.12,87.77 226.37,87.77L216.10,87.77Q214.72,87.77 214.03,87.52Q213.34,87.27 212.84,86.27L199.82,56.97Q199.44,56.22 198.82,55.97Q198.19,55.72 196.31,55.72L185.67,55.72Q184.16,55.72 183.35,56.16Q182.54,56.59 182.54,57.97L182.54,85.52Q182.54,86.52 181.85,87.14Q181.16,87.77 180.16,87.77L170.39,87.77Q169.39,87.77 168.70,87.14Q168.01,86.52 168.01,85.52Z"/>
  <path class="cls-1" d="M246.76,13.14L246.76,2.37Q246.76,1.37 247.45,0.75Q248.14,0.12 249.01,0.12L307.12,0.12Q308.12,0.12 308.81,0.81Q309.49,1.50 309.49,2.37L309.49,13.14Q309.49,14.02 308.81,14.77Q308.12,15.52 307.12,15.52L249.01,15.52Q248.14,15.52 247.45,14.83Q246.76,14.15 246.76,13.14ZM246.76,85.53L246.76,27.67Q246.76,26.67 247.45,26.04Q248.14,25.42 249.01,25.42L259.66,25.42Q260.66,25.42 261.29,26.04Q261.91,26.67 261.91,27.67L261.91,33.94Q261.91,39.07 268.93,39.07L296.72,39.07Q297.60,39.07 298.23,39.63Q298.85,40.19 298.85,41.07L298.85,51.84Q298.85,52.72 298.23,53.28Q297.60,53.84 296.72,53.84L269.11,53.84Q261.91,53.84 261.91,60.42L261.91,70.12Q261.91,71.00 262.66,71.75Q263.41,72.50 264.29,72.50L307.37,72.50Q308.37,72.50 308.99,73.13Q309.62,73.75 309.62,74.76L309.62,85.53Q309.62,86.40 308.99,87.09Q308.37,87.78 307.37,87.78L249.01,87.78Q248.14,87.78 247.45,87.09Q246.76,86.40 246.76,85.53Z"/>
  <path class="cls-1" d="M392.43,32.16l-24.02,26.23,27.05,29.37h-18.41l-17.8-19.39-17.8,19.39h-18.47l27-29.47-23.92-26.13h18.31l14.76,16.1,14.86-16.1h18.41Z"/>
  <path class="cls-1" d="M471.36,68.99c0,2.3-.29,4.36-.87,6.2-.58,1.83-1.36,3.45-2.31,4.83-.96,1.39-2.08,2.57-3.34,3.55-1.27.98-2.6,1.77-3.99,2.39s-2.79,1.07-4.19,1.36c-1.41.29-2.74.44-4.01.44h-24.12v-13.37h24.12c1.78,0,3.12-.46,4.01-1.39.89-.93,1.34-2.26,1.34-4.01v-18c0-1.85-.46-3.22-1.36-4.11-.91-.89-2.24-1.34-3.99-1.34h-24.02c-1.82,0-3.19.46-4.11,1.36-.93.91-1.39,2.24-1.39,3.99v54.26h-13.37v-54.26c0-2.3.29-4.35.87-6.17.58-1.82,1.36-3.42,2.34-4.81s2.1-2.57,3.37-3.55c1.27-.98,2.6-1.77,3.99-2.39s2.79-1.07,4.22-1.36c1.42-.29,2.75-.44,3.99-.44h24.12c2.3,0,4.35.29,6.17.87,1.82.58,3.42,1.36,4.81,2.31,1.39.96,2.57,2.08,3.55,3.34.98,1.27,1.77,2.6,2.39,3.99s1.07,2.79,1.36,4.19c.29,1.41.44,2.74.44,4.01v18.11Z"/>
</svg>